<?xml version="1.0" encoding="utf-8"?>
<svg xmlns="http://www.w3.org/2000/svg" version="1.1" width="1020" height="1020">
<rect width="1020" height="1020" x="0" y="0" fill="white" />
<line x1="10" y1="10" x2="10" y2="60" stroke="black" stroke-width="3" />
<line x1="10" y1="60" x2="10" y2="110" stroke="black" stroke-width="3" />
<line x1="10" y1="110" x2="10" y2="160" stroke="black" stroke-width="3" />
<line x1="10" y1="160" x2="10" y2="210" stroke="black" stroke-width="3" />
<line x1="10" y1="210" x2="10" y2="260" stroke="black" stroke-width="3" />
<line x1="10" y1="260" x2="10" y2="310" stroke="black" stroke-width="3" />
<line x1="10" y1="310" x2="10" y2="360" stroke="black" stroke-width="3" />
<line x1="10" y1="360" x2="10" y2="410" stroke="black" stroke-width="3" />
<line x1="10" y1="410" x2="10" y2="460" stroke="black" stroke-width="3" />
<line x1="10" y1="460" x2="10" y2="510" stroke="black" stroke-width="3" />
<line x1="10" y1="510" x2="10" y2="560" stroke="black" stroke-width="3" />
<line x1="10" y1="560" x2="10" y2="610" stroke="black" stroke-width="3" />
<line x1="10" y1="610" x2="10" y2="660" stroke="black" stroke-width="3" />
<line x1="10" y1="660" x2="10" y2="710" stroke="black" stroke-width="3" />
<line x1="10" y1="710" x2="10" y2="760" stroke="black" stroke-width="3" />
<line x1="10" y1="760" x2="10" y2="810" stroke="black" stroke-width="3" />
<line x1="10" y1="810" x2="10" y2="860" stroke="black" stroke-width="3" />
<line x1="10" y1="860" x2="10" y2="910" stroke="black" stroke-width="3" />
<line x1="10" y1="910" x2="10" y2="960" stroke="black" stroke-width="3" />
<line x1="10" y1="960" x2="10" y2="1010" stroke="black" stroke-width="3" />
<line x1="60" y1="10" x2="60" y2="60" stroke="black" stroke-width="3" />
<line x1="60" y1="160" x2="60" y2="210" stroke="black" stroke-width="3" />
<line x1="60" y1="410" x2="60" y2="460" stroke="black" stroke-width="3" />
<line x1="60" y1="710" x2="60" y2="760" stroke="black" stroke-width="3" />
<line x1="60" y1="760" x2="60" y2="810" stroke="black" stroke-width="3" />
<line x1="60" y1="910" x2="60" y2="960" stroke="black" stroke-width="3" />
<line x1="60" y1="960" x2="60" y2="1010" stroke="black" stroke-width="3" />
<line x1="110" y1="60" x2="110" y2="110" stroke="black" stroke-width="3" />
<line x1="110" y1="210" x2="110" y2="260" stroke="black" stroke-width="3" />
<line x1="110" y1="410" x2="110" y2="460" stroke="black" stroke-width="3" />
<line x1="110" y1="460" x2="110" y2="510" stroke="black" stroke-width="3" />
<line x1="110" y1="560" x2="110" y2="610" stroke="black" stroke-width="3" />
<line x1="110" y1="610" x2="110" y2="660" stroke="black" stroke-width="3" />
<line x1="110" y1="710" x2="110" y2="760" stroke="black" stroke-width="3" />
<line x1="110" y1="810" x2="110" y2="860" stroke="black" stroke-width="3" />
<line x1="110" y1="860" x2="110" y2="910" stroke="black" stroke-width="3" />
<line x1="110" y1="910" x2="110" y2="960" stroke="black" stroke-width="3" />
<line x1="160" y1="160" x2="160" y2="210" stroke="black" stroke-width="3" />
<line x1="160" y1="210" x2="160" y2="260" stroke="black" stroke-width="3" />
<line x1="160" y1="260" x2="160" y2="310" stroke="black" stroke-width="3" />
<line x1="160" y1="360" x2="160" y2="410" stroke="black" stroke-width="3" />
<line x1="160" y1="410" x2="160" y2="460" stroke="black" stroke-width="3" />
<line x1="160" y1="560" x2="160" y2="610" stroke="black" stroke-width="3" />
<line x1="160" y1="660" x2="160" y2="710" stroke="black" stroke-width="3" />
<line x1="160" y1="710" x2="160" y2="760" stroke="black" stroke-width="3" />
<line x1="160" y1="860" x2="160" y2="910" stroke="black" stroke-width="3" />
<line x1="210" y1="110" x2="210" y2="160" stroke="black" stroke-width="3" />
<line x1="210" y1="260" x2="210" y2="310" stroke="black" stroke-width="3" />
<line x1="210" y1="360" x2="210" y2="410" stroke="black" stroke-width="3" />
<line x1="210" y1="510" x2="210" y2="560" stroke="black" stroke-width="3" />
<line x1="210" y1="560" x2="210" y2="610" stroke="black" stroke-width="3" />
<line x1="210" y1="610" x2="210" y2="660" stroke="black" stroke-width="3" />
<line x1="210" y1="710" x2="210" y2="760" stroke="black" stroke-width="3" />
<line x1="210" y1="760" x2="210" y2="810" stroke="black" stroke-width="3" />
<line x1="210" y1="810" x2="210" y2="860" stroke="black" stroke-width="3" />
<line x1="210" y1="910" x2="210" y2="960" stroke="black" stroke-width="3" />
<line x1="210" y1="960" x2="210" y2="1010" stroke="black" stroke-width="3" />
<line x1="260" y1="60" x2="260" y2="110" stroke="black" stroke-width="3" />
<line x1="260" y1="210" x2="260" y2="260" stroke="black" stroke-width="3" />
<line x1="260" y1="260" x2="260" y2="310" stroke="black" stroke-width="3" />
<line x1="260" y1="310" x2="260" y2="360" stroke="black" stroke-width="3" />
<line x1="260" y1="360" x2="260" y2="410" stroke="black" stroke-width="3" />
<line x1="260" y1="410" x2="260" y2="460" stroke="black" stroke-width="3" />
<line x1="260" y1="460" x2="260" y2="510" stroke="black" stroke-width="3" />
<line x1="260" y1="510" x2="260" y2="560" stroke="black" stroke-width="3" />
<line x1="260" y1="660" x2="260" y2="710" stroke="black" stroke-width="3" />
<line x1="260" y1="710" x2="260" y2="760" stroke="black" stroke-width="3" />
<line x1="260" y1="760" x2="260" y2="810" stroke="black" stroke-width="3" />
<line x1="260" y1="810" x2="260" y2="860" stroke="black" stroke-width="3" />
<line x1="310" y1="60" x2="310" y2="110" stroke="black" stroke-width="3" />
<line x1="310" y1="110" x2="310" y2="160" stroke="black" stroke-width="3" />
<line x1="310" y1="210" x2="310" y2="260" stroke="black" stroke-width="3" />
<line x1="310" y1="360" x2="310" y2="410" stroke="black" stroke-width="3" />
<line x1="310" y1="460" x2="310" y2="510" stroke="black" stroke-width="3" />
<line x1="310" y1="560" x2="310" y2="610" stroke="black" stroke-width="3" />
<line x1="310" y1="610" x2="310" y2="660" stroke="black" stroke-width="3" />
<line x1="310" y1="660" x2="310" y2="710" stroke="black" stroke-width="3" />
<line x1="310" y1="860" x2="310" y2="910" stroke="black" stroke-width="3" />
<line x1="310" y1="910" x2="310" y2="960" stroke="black" stroke-width="3" />
<line x1="360" y1="10" x2="360" y2="60" stroke="black" stroke-width="3" />
<line x1="360" y1="110" x2="360" y2="160" stroke="black" stroke-width="3" />
<line x1="360" y1="310" x2="360" y2="360" stroke="black" stroke-width="3" />
<line x1="360" y1="360" x2="360" y2="410" stroke="black" stroke-width="3" />
<line x1="360" y1="510" x2="360" y2="560" stroke="black" stroke-width="3" />
<line x1="360" y1="610" x2="360" y2="660" stroke="black" stroke-width="3" />
<line x1="360" y1="660" x2="360" y2="710" stroke="black" stroke-width="3" />
<line x1="360" y1="710" x2="360" y2="760" stroke="black" stroke-width="3" />
<line x1="360" y1="760" x2="360" y2="810" stroke="black" stroke-width="3" />
<line x1="360" y1="810" x2="360" y2="860" stroke="black" stroke-width="3" />
<line x1="410" y1="60" x2="410" y2="110" stroke="black" stroke-width="3" />
<line x1="410" y1="110" x2="410" y2="160" stroke="black" stroke-width="3" />
<line x1="410" y1="160" x2="410" y2="210" stroke="black" stroke-width="3" />
<line x1="410" y1="210" x2="410" y2="260" stroke="black" stroke-width="3" />
<line x1="410" y1="310" x2="410" y2="360" stroke="black" stroke-width="3" />
<line x1="410" y1="460" x2="410" y2="510" stroke="black" stroke-width="3" />
<line x1="410" y1="560" x2="410" y2="610" stroke="black" stroke-width="3" />
<line x1="410" y1="760" x2="410" y2="810" stroke="black" stroke-width="3" />
<line x1="410" y1="860" x2="410" y2="910" stroke="black" stroke-width="3" />
<line x1="460" y1="10" x2="460" y2="60" stroke="black" stroke-width="3" />
<line x1="460" y1="160" x2="460" y2="210" stroke="black" stroke-width="3" />
<line x1="460" y1="210" x2="460" y2="260" stroke="black" stroke-width="3" />
<line x1="460" y1="260" x2="460" y2="310" stroke="black" stroke-width="3" />
<line x1="460" y1="410" x2="460" y2="460" stroke="black" stroke-width="3" />
<line x1="460" y1="610" x2="460" y2="660" stroke="black" stroke-width="3" />
<line x1="460" y1="660" x2="460" y2="710" stroke="black" stroke-width="3" />
<line x1="460" y1="910" x2="460" y2="960" stroke="black" stroke-width="3" />
<line x1="510" y1="210" x2="510" y2="260" stroke="black" stroke-width="3" />
<line x1="510" y1="260" x2="510" y2="310" stroke="black" stroke-width="3" />
<line x1="510" y1="310" x2="510" y2="360" stroke="black" stroke-width="3" />
<line x1="510" y1="360" x2="510" y2="410" stroke="black" stroke-width="3" />
<line x1="510" y1="460" x2="510" y2="510" stroke="black" stroke-width="3" />
<line x1="510" y1="660" x2="510" y2="710" stroke="black" stroke-width="3" />
<line x1="510" y1="710" x2="510" y2="760" stroke="black" stroke-width="3" />
<line x1="510" y1="810" x2="510" y2="860" stroke="black" stroke-width="3" />
<line x1="510" y1="860" x2="510" y2="910" stroke="black" stroke-width="3" />
<line x1="510" y1="910" x2="510" y2="960" stroke="black" stroke-width="3" />
<line x1="560" y1="10" x2="560" y2="60" stroke="black" stroke-width="3" />
<line x1="560" y1="160" x2="560" y2="210" stroke="black" stroke-width="3" />
<line x1="560" y1="310" x2="560" y2="360" stroke="black" stroke-width="3" />
<line x1="560" y1="360" x2="560" y2="410" stroke="black" stroke-width="3" />
<line x1="560" y1="410" x2="560" y2="460" stroke="black" stroke-width="3" />
<line x1="560" y1="460" x2="560" y2="510" stroke="black" stroke-width="3" />
<line x1="560" y1="510" x2="560" y2="560" stroke="black" stroke-width="3" />
<line x1="560" y1="560" x2="560" y2="610" stroke="black" stroke-width="3" />
<line x1="560" y1="710" x2="560" y2="760" stroke="black" stroke-width="3" />
<line x1="560" y1="810" x2="560" y2="860" stroke="black" stroke-width="3" />
<line x1="560" y1="860" x2="560" y2="910" stroke="black" stroke-width="3" />
<line x1="560" y1="910" x2="560" y2="960" stroke="black" stroke-width="3" />
<line x1="560" y1="960" x2="560" y2="1010" stroke="black" stroke-width="3" />
<line x1="610" y1="10" x2="610" y2="60" stroke="black" stroke-width="3" />
<line x1="610" y1="60" x2="610" y2="110" stroke="black" stroke-width="3" />
<line x1="610" y1="210" x2="610" y2="260" stroke="black" stroke-width="3" />
<line x1="610" y1="260" x2="610" y2="310" stroke="black" stroke-width="3" />
<line x1="610" y1="310" x2="610" y2="360" stroke="black" stroke-width="3" />
<line x1="610" y1="460" x2="610" y2="510" stroke="black" stroke-width="3" />
<line x1="610" y1="560" x2="610" y2="610" stroke="black" stroke-width="3" />
<line x1="610" y1="610" x2="610" y2="660" stroke="black" stroke-width="3" />
<line x1="610" y1="710" x2="610" y2="760" stroke="black" stroke-width="3" />
<line x1="610" y1="760" x2="610" y2="810" stroke="black" stroke-width="3" />
<line x1="610" y1="810" x2="610" y2="860" stroke="black" stroke-width="3" />
<line x1="610" y1="860" x2="610" y2="910" stroke="black" stroke-width="3" />
<line x1="610" y1="910" x2="610" y2="960" stroke="black" stroke-width="3" />
<line x1="660" y1="110" x2="660" y2="160" stroke="black" stroke-width="3" />
<line x1="660" y1="160" x2="660" y2="210" stroke="black" stroke-width="3" />
<line x1="660" y1="660" x2="660" y2="710" stroke="black" stroke-width="3" />
<line x1="660" y1="760" x2="660" y2="810" stroke="black" stroke-width="3" />
<line x1="660" y1="810" x2="660" y2="860" stroke="black" stroke-width="3" />
<line x1="660" y1="960" x2="660" y2="1010" stroke="black" stroke-width="3" />
<line x1="710" y1="10" x2="710" y2="60" stroke="black" stroke-width="3" />
<line x1="710" y1="310" x2="710" y2="360" stroke="black" stroke-width="3" />
<line x1="710" y1="360" x2="710" y2="410" stroke="black" stroke-width="3" />
<line x1="710" y1="410" x2="710" y2="460" stroke="black" stroke-width="3" />
<line x1="710" y1="460" x2="710" y2="510" stroke="black" stroke-width="3" />
<line x1="710" y1="560" x2="710" y2="610" stroke="black" stroke-width="3" />
<line x1="710" y1="610" x2="710" y2="660" stroke="black" stroke-width="3" />
<line x1="710" y1="760" x2="710" y2="810" stroke="black" stroke-width="3" />
<line x1="710" y1="910" x2="710" y2="960" stroke="black" stroke-width="3" />
<line x1="760" y1="110" x2="760" y2="160" stroke="black" stroke-width="3" />
<line x1="760" y1="310" x2="760" y2="360" stroke="black" stroke-width="3" />
<line x1="760" y1="410" x2="760" y2="460" stroke="black" stroke-width="3" />
<line x1="760" y1="560" x2="760" y2="610" stroke="black" stroke-width="3" />
<line x1="760" y1="610" x2="760" y2="660" stroke="black" stroke-width="3" />
<line x1="760" y1="710" x2="760" y2="760" stroke="black" stroke-width="3" />
<line x1="760" y1="810" x2="760" y2="860" stroke="black" stroke-width="3" />
<line x1="760" y1="910" x2="760" y2="960" stroke="black" stroke-width="3" />
<line x1="810" y1="60" x2="810" y2="110" stroke="black" stroke-width="3" />
<line x1="810" y1="310" x2="810" y2="360" stroke="black" stroke-width="3" />
<line x1="810" y1="360" x2="810" y2="410" stroke="black" stroke-width="3" />
<line x1="810" y1="410" x2="810" y2="460" stroke="black" stroke-width="3" />
<line x1="810" y1="460" x2="810" y2="510" stroke="black" stroke-width="3" />
<line x1="810" y1="510" x2="810" y2="560" stroke="black" stroke-width="3" />
<line x1="810" y1="560" x2="810" y2="610" stroke="black" stroke-width="3" />
<line x1="810" y1="760" x2="810" y2="810" stroke="black" stroke-width="3" />
<line x1="810" y1="910" x2="810" y2="960" stroke="black" stroke-width="3" />
<line x1="860" y1="110" x2="860" y2="160" stroke="black" stroke-width="3" />
<line x1="860" y1="210" x2="860" y2="260" stroke="black" stroke-width="3" />
<line x1="860" y1="310" x2="860" y2="360" stroke="black" stroke-width="3" />
<line x1="860" y1="410" x2="860" y2="460" stroke="black" stroke-width="3" />
<line x1="860" y1="560" x2="860" y2="610" stroke="black" stroke-width="3" />
<line x1="860" y1="710" x2="860" y2="760" stroke="black" stroke-width="3" />
<line x1="860" y1="860" x2="860" y2="910" stroke="black" stroke-width="3" />
<line x1="860" y1="910" x2="860" y2="960" stroke="black" stroke-width="3" />
<line x1="860" y1="960" x2="860" y2="1010" stroke="black" stroke-width="3" />
<line x1="910" y1="160" x2="910" y2="210" stroke="black" stroke-width="3" />
<line x1="910" y1="210" x2="910" y2="260" stroke="black" stroke-width="3" />
<line x1="910" y1="310" x2="910" y2="360" stroke="black" stroke-width="3" />
<line x1="910" y1="510" x2="910" y2="560" stroke="black" stroke-width="3" />
<line x1="910" y1="560" x2="910" y2="610" stroke="black" stroke-width="3" />
<line x1="910" y1="710" x2="910" y2="760" stroke="black" stroke-width="3" />
<line x1="960" y1="60" x2="960" y2="110" stroke="black" stroke-width="3" />
<line x1="960" y1="210" x2="960" y2="260" stroke="black" stroke-width="3" />
<line x1="960" y1="310" x2="960" y2="360" stroke="black" stroke-width="3" />
<line x1="960" y1="410" x2="960" y2="460" stroke="black" stroke-width="3" />
<line x1="960" y1="460" x2="960" y2="510" stroke="black" stroke-width="3" />
<line x1="960" y1="610" x2="960" y2="660" stroke="black" stroke-width="3" />
<line x1="960" y1="660" x2="960" y2="710" stroke="black" stroke-width="3" />
<line x1="960" y1="910" x2="960" y2="960" stroke="black" stroke-width="3" />
<line x1="1010" y1="10" x2="1010" y2="60" stroke="black" stroke-width="3" />
<line x1="1010" y1="60" x2="1010" y2="110" stroke="black" stroke-width="3" />
<line x1="1010" y1="110" x2="1010" y2="160" stroke="black" stroke-width="3" />
<line x1="1010" y1="160" x2="1010" y2="210" stroke="black" stroke-width="3" />
<line x1="1010" y1="210" x2="1010" y2="260" stroke="black" stroke-width="3" />
<line x1="1010" y1="260" x2="1010" y2="310" stroke="black" stroke-width="3" />
<line x1="1010" y1="310" x2="1010" y2="360" stroke="black" stroke-width="3" />
<line x1="1010" y1="360" x2="1010" y2="410" stroke="black" stroke-width="3" />
<line x1="1010" y1="410" x2="1010" y2="460" stroke="black" stroke-width="3" />
<line x1="1010" y1="460" x2="1010" y2="510" stroke="black" stroke-width="3" />
<line x1="1010" y1="510" x2="1010" y2="560" stroke="black" stroke-width="3" />
<line x1="1010" y1="560" x2="1010" y2="610" stroke="black" stroke-width="3" />
<line x1="1010" y1="610" x2="1010" y2="660" stroke="black" stroke-width="3" />
<line x1="1010" y1="660" x2="1010" y2="710" stroke="black" stroke-width="3" />
<line x1="1010" y1="710" x2="1010" y2="760" stroke="black" stroke-width="3" />
<line x1="1010" y1="760" x2="1010" y2="810" stroke="black" stroke-width="3" />
<line x1="1010" y1="810" x2="1010" y2="860" stroke="black" stroke-width="3" />
<line x1="1010" y1="860" x2="1010" y2="910" stroke="black" stroke-width="3" />
<line x1="1010" y1="910" x2="1010" y2="960" stroke="black" stroke-width="3" />
<line x1="1010" y1="960" x2="1010" y2="1010" stroke="black" stroke-width="3" />
<line x1="10" y1="10" x2="60" y2="10" stroke="black" stroke-width="3" />
<line x1="10" y1="110" x2="60" y2="110" stroke="black" stroke-width="3" />
<line x1="10" y1="260" x2="60" y2="260" stroke="black" stroke-width="3" />
<line x1="10" y1="360" x2="60" y2="360" stroke="black" stroke-width="3" />
<line x1="10" y1="410" x2="60" y2="410" stroke="black" stroke-width="3" />
<line x1="10" y1="660" x2="60" y2="660" stroke="black" stroke-width="3" />
<line x1="10" y1="810" x2="60" y2="810" stroke="black" stroke-width="3" />
<line x1="10" y1="860" x2="60" y2="860" stroke="black" stroke-width="3" />
<line x1="10" y1="1010" x2="60" y2="1010" stroke="black" stroke-width="3" />
<line x1="60" y1="10" x2="110" y2="10" stroke="black" stroke-width="3" />
<line x1="60" y1="60" x2="110" y2="60" stroke="black" stroke-width="3" />
<line x1="60" y1="210" x2="110" y2="210" stroke="black" stroke-width="3" />
<line x1="60" y1="310" x2="110" y2="310" stroke="black" stroke-width="3" />
<line x1="60" y1="460" x2="110" y2="460" stroke="black" stroke-width="3" />
<line x1="60" y1="510" x2="110" y2="510" stroke="black" stroke-width="3" />
<line x1="60" y1="560" x2="110" y2="560" stroke="black" stroke-width="3" />
<line x1="60" y1="610" x2="110" y2="610" stroke="black" stroke-width="3" />
<line x1="60" y1="660" x2="110" y2="660" stroke="black" stroke-width="3" />
<line x1="60" y1="710" x2="110" y2="710" stroke="black" stroke-width="3" />
<line x1="60" y1="960" x2="110" y2="960" stroke="black" stroke-width="3" />
<line x1="60" y1="1010" x2="110" y2="1010" stroke="black" stroke-width="3" />
<line x1="110" y1="10" x2="160" y2="10" stroke="black" stroke-width="3" />
<line x1="110" y1="60" x2="160" y2="60" stroke="black" stroke-width="3" />
<line x1="110" y1="160" x2="160" y2="160" stroke="black" stroke-width="3" />
<line x1="110" y1="210" x2="160" y2="210" stroke="black" stroke-width="3" />
<line x1="110" y1="310" x2="160" y2="310" stroke="black" stroke-width="3" />
<line x1="110" y1="360" x2="160" y2="360" stroke="black" stroke-width="3" />
<line x1="110" y1="410" x2="160" y2="410" stroke="black" stroke-width="3" />
<line x1="110" y1="510" x2="160" y2="510" stroke="black" stroke-width="3" />
<line x1="110" y1="610" x2="160" y2="610" stroke="black" stroke-width="3" />
<line x1="110" y1="810" x2="160" y2="810" stroke="black" stroke-width="3" />
<line x1="110" y1="960" x2="160" y2="960" stroke="black" stroke-width="3" />
<line x1="110" y1="1010" x2="160" y2="1010" stroke="black" stroke-width="3" />
<line x1="160" y1="10" x2="210" y2="10" stroke="black" stroke-width="3" />
<line x1="160" y1="110" x2="210" y2="110" stroke="black" stroke-width="3" />
<line x1="160" y1="160" x2="210" y2="160" stroke="black" stroke-width="3" />
<line x1="160" y1="210" x2="210" y2="210" stroke="black" stroke-width="3" />
<line x1="160" y1="260" x2="210" y2="260" stroke="black" stroke-width="3" />
<line x1="160" y1="460" x2="210" y2="460" stroke="black" stroke-width="3" />
<line x1="160" y1="760" x2="210" y2="760" stroke="black" stroke-width="3" />
<line x1="160" y1="860" x2="210" y2="860" stroke="black" stroke-width="3" />
<line x1="160" y1="1010" x2="210" y2="1010" stroke="black" stroke-width="3" />
<line x1="210" y1="10" x2="260" y2="10" stroke="black" stroke-width="3" />
<line x1="210" y1="60" x2="260" y2="60" stroke="black" stroke-width="3" />
<line x1="210" y1="310" x2="260" y2="310" stroke="black" stroke-width="3" />
<line x1="210" y1="360" x2="260" y2="360" stroke="black" stroke-width="3" />
<line x1="210" y1="610" x2="260" y2="610" stroke="black" stroke-width="3" />
<line x1="210" y1="710" x2="260" y2="710" stroke="black" stroke-width="3" />
<line x1="210" y1="910" x2="260" y2="910" stroke="black" stroke-width="3" />
<line x1="210" y1="960" x2="260" y2="960" stroke="black" stroke-width="3" />
<line x1="210" y1="1010" x2="260" y2="1010" stroke="black" stroke-width="3" />
<line x1="260" y1="10" x2="310" y2="10" stroke="black" stroke-width="3" />
<line x1="260" y1="110" x2="310" y2="110" stroke="black" stroke-width="3" />
<line x1="260" y1="160" x2="310" y2="160" stroke="black" stroke-width="3" />
<line x1="260" y1="260" x2="310" y2="260" stroke="black" stroke-width="3" />
<line x1="260" y1="310" x2="310" y2="310" stroke="black" stroke-width="3" />
<line x1="260" y1="410" x2="310" y2="410" stroke="black" stroke-width="3" />
<line x1="260" y1="510" x2="310" y2="510" stroke="black" stroke-width="3" />
<line x1="260" y1="560" x2="310" y2="560" stroke="black" stroke-width="3" />
<line x1="260" y1="610" x2="310" y2="610" stroke="black" stroke-width="3" />
<line x1="260" y1="660" x2="310" y2="660" stroke="black" stroke-width="3" />
<line x1="260" y1="760" x2="310" y2="760" stroke="black" stroke-width="3" />
<line x1="260" y1="810" x2="310" y2="810" stroke="black" stroke-width="3" />
<line x1="260" y1="1010" x2="310" y2="1010" stroke="black" stroke-width="3" />
<line x1="310" y1="10" x2="360" y2="10" stroke="black" stroke-width="3" />
<line x1="310" y1="160" x2="360" y2="160" stroke="black" stroke-width="3" />
<line x1="310" y1="210" x2="360" y2="210" stroke="black" stroke-width="3" />
<line x1="310" y1="260" x2="360" y2="260" stroke="black" stroke-width="3" />
<line x1="310" y1="310" x2="360" y2="310" stroke="black" stroke-width="3" />
<line x1="310" y1="510" x2="360" y2="510" stroke="black" stroke-width="3" />
<line x1="310" y1="660" x2="360" y2="660" stroke="black" stroke-width="3" />
<line x1="310" y1="860" x2="360" y2="860" stroke="black" stroke-width="3" />
<line x1="310" y1="910" x2="360" y2="910" stroke="black" stroke-width="3" />
<line x1="310" y1="960" x2="360" y2="960" stroke="black" stroke-width="3" />
<line x1="310" y1="1010" x2="360" y2="1010" stroke="black" stroke-width="3" />
<line x1="360" y1="10" x2="410" y2="10" stroke="black" stroke-width="3" />
<line x1="360" y1="160" x2="410" y2="160" stroke="black" stroke-width="3" />
<line x1="360" y1="310" x2="410" y2="310" stroke="black" stroke-width="3" />
<line x1="360" y1="410" x2="410" y2="410" stroke="black" stroke-width="3" />
<line x1="360" y1="460" x2="410" y2="460" stroke="black" stroke-width="3" />
<line x1="360" y1="510" x2="410" y2="510" stroke="black" stroke-width="3" />
<line x1="360" y1="610" x2="410" y2="610" stroke="black" stroke-width="3" />
<line x1="360" y1="660" x2="410" y2="660" stroke="black" stroke-width="3" />
<line x1="360" y1="760" x2="410" y2="760" stroke="black" stroke-width="3" />
<line x1="360" y1="860" x2="410" y2="860" stroke="black" stroke-width="3" />
<line x1="360" y1="1010" x2="410" y2="1010" stroke="black" stroke-width="3" />
<line x1="410" y1="10" x2="460" y2="10" stroke="black" stroke-width="3" />
<line x1="410" y1="60" x2="460" y2="60" stroke="black" stroke-width="3" />
<line x1="410" y1="110" x2="460" y2="110" stroke="black" stroke-width="3" />
<line x1="410" y1="160" x2="460" y2="160" stroke="black" stroke-width="3" />
<line x1="410" y1="310" x2="460" y2="310" stroke="black" stroke-width="3" />
<line x1="410" y1="510" x2="460" y2="510" stroke="black" stroke-width="3" />
<line x1="410" y1="610" x2="460" y2="610" stroke="black" stroke-width="3" />
<line x1="410" y1="710" x2="460" y2="710" stroke="black" stroke-width="3" />
<line x1="410" y1="760" x2="460" y2="760" stroke="black" stroke-width="3" />
<line x1="410" y1="860" x2="460" y2="860" stroke="black" stroke-width="3" />
<line x1="410" y1="910" x2="460" y2="910" stroke="black" stroke-width="3" />
<line x1="410" y1="960" x2="460" y2="960" stroke="black" stroke-width="3" />
<line x1="410" y1="1010" x2="460" y2="1010" stroke="black" stroke-width="3" />
<line x1="460" y1="10" x2="510" y2="10" stroke="black" stroke-width="3" />
<line x1="460" y1="60" x2="510" y2="60" stroke="black" stroke-width="3" />
<line x1="460" y1="110" x2="510" y2="110" stroke="black" stroke-width="3" />
<line x1="460" y1="160" x2="510" y2="160" stroke="black" stroke-width="3" />
<line x1="460" y1="360" x2="510" y2="360" stroke="black" stroke-width="3" />
<line x1="460" y1="410" x2="510" y2="410" stroke="black" stroke-width="3" />
<line x1="460" y1="460" x2="510" y2="460" stroke="black" stroke-width="3" />
<line x1="460" y1="560" x2="510" y2="560" stroke="black" stroke-width="3" />
<line x1="460" y1="660" x2="510" y2="660" stroke="black" stroke-width="3" />
<line x1="460" y1="810" x2="510" y2="810" stroke="black" stroke-width="3" />
<line x1="460" y1="1010" x2="510" y2="1010" stroke="black" stroke-width="3" />
<line x1="510" y1="10" x2="560" y2="10" stroke="black" stroke-width="3" />
<line x1="510" y1="160" x2="560" y2="160" stroke="black" stroke-width="3" />
<line x1="510" y1="410" x2="560" y2="410" stroke="black" stroke-width="3" />
<line x1="510" y1="560" x2="560" y2="560" stroke="black" stroke-width="3" />
<line x1="510" y1="610" x2="560" y2="610" stroke="black" stroke-width="3" />
<line x1="510" y1="910" x2="560" y2="910" stroke="black" stroke-width="3" />
<line x1="510" y1="1010" x2="560" y2="1010" stroke="black" stroke-width="3" />
<line x1="560" y1="10" x2="610" y2="10" stroke="black" stroke-width="3" />
<line x1="560" y1="110" x2="610" y2="110" stroke="black" stroke-width="3" />
<line x1="560" y1="160" x2="610" y2="160" stroke="black" stroke-width="3" />
<line x1="560" y1="260" x2="610" y2="260" stroke="black" stroke-width="3" />
<line x1="560" y1="310" x2="610" y2="310" stroke="black" stroke-width="3" />
<line x1="560" y1="560" x2="610" y2="560" stroke="black" stroke-width="3" />
<line x1="560" y1="660" x2="610" y2="660" stroke="black" stroke-width="3" />
<line x1="560" y1="710" x2="610" y2="710" stroke="black" stroke-width="3" />
<line x1="560" y1="960" x2="610" y2="960" stroke="black" stroke-width="3" />
<line x1="560" y1="1010" x2="610" y2="1010" stroke="black" stroke-width="3" />
<line x1="610" y1="10" x2="660" y2="10" stroke="black" stroke-width="3" />
<line x1="610" y1="160" x2="660" y2="160" stroke="black" stroke-width="3" />
<line x1="610" y1="210" x2="660" y2="210" stroke="black" stroke-width="3" />
<line x1="610" y1="260" x2="660" y2="260" stroke="black" stroke-width="3" />
<line x1="610" y1="410" x2="660" y2="410" stroke="black" stroke-width="3" />
<line x1="610" y1="460" x2="660" y2="460" stroke="black" stroke-width="3" />
<line x1="610" y1="510" x2="660" y2="510" stroke="black" stroke-width="3" />
<line x1="610" y1="710" x2="660" y2="710" stroke="black" stroke-width="3" />
<line x1="610" y1="910" x2="660" y2="910" stroke="black" stroke-width="3" />
<line x1="610" y1="1010" x2="660" y2="1010" stroke="black" stroke-width="3" />
<line x1="660" y1="10" x2="710" y2="10" stroke="black" stroke-width="3" />
<line x1="660" y1="60" x2="710" y2="60" stroke="black" stroke-width="3" />
<line x1="660" y1="160" x2="710" y2="160" stroke="black" stroke-width="3" />
<line x1="660" y1="260" x2="710" y2="260" stroke="black" stroke-width="3" />
<line x1="660" y1="310" x2="710" y2="310" stroke="black" stroke-width="3" />
<line x1="660" y1="360" x2="710" y2="360" stroke="black" stroke-width="3" />
<line x1="660" y1="410" x2="710" y2="410" stroke="black" stroke-width="3" />
<line x1="660" y1="510" x2="710" y2="510" stroke="black" stroke-width="3" />
<line x1="660" y1="560" x2="710" y2="560" stroke="black" stroke-width="3" />
<line x1="660" y1="610" x2="710" y2="610" stroke="black" stroke-width="3" />
<line x1="660" y1="660" x2="710" y2="660" stroke="black" stroke-width="3" />
<line x1="660" y1="710" x2="710" y2="710" stroke="black" stroke-width="3" />
<line x1="660" y1="760" x2="710" y2="760" stroke="black" stroke-width="3" />
<line x1="660" y1="960" x2="710" y2="960" stroke="black" stroke-width="3" />
<line x1="660" y1="1010" x2="710" y2="1010" stroke="black" stroke-width="3" />
<line x1="710" y1="10" x2="760" y2="10" stroke="black" stroke-width="3" />
<line x1="710" y1="60" x2="760" y2="60" stroke="black" stroke-width="3" />
<line x1="710" y1="110" x2="760" y2="110" stroke="black" stroke-width="3" />
<line x1="710" y1="210" x2="760" y2="210" stroke="black" stroke-width="3" />
<line x1="710" y1="260" x2="760" y2="260" stroke="black" stroke-width="3" />
<line x1="710" y1="360" x2="760" y2="360" stroke="black" stroke-width="3" />
<line x1="710" y1="410" x2="760" y2="410" stroke="black" stroke-width="3" />
<line x1="710" y1="510" x2="760" y2="510" stroke="black" stroke-width="3" />
<line x1="710" y1="610" x2="760" y2="610" stroke="black" stroke-width="3" />
<line x1="710" y1="760" x2="760" y2="760" stroke="black" stroke-width="3" />
<line x1="710" y1="810" x2="760" y2="810" stroke="black" stroke-width="3" />
<line x1="710" y1="860" x2="760" y2="860" stroke="black" stroke-width="3" />
<line x1="710" y1="1010" x2="760" y2="1010" stroke="black" stroke-width="3" />
<line x1="760" y1="10" x2="810" y2="10" stroke="black" stroke-width="3" />
<line x1="760" y1="110" x2="810" y2="110" stroke="black" stroke-width="3" />
<line x1="760" y1="210" x2="810" y2="210" stroke="black" stroke-width="3" />
<line x1="760" y1="260" x2="810" y2="260" stroke="black" stroke-width="3" />
<line x1="760" y1="310" x2="810" y2="310" stroke="black" stroke-width="3" />
<line x1="760" y1="560" x2="810" y2="560" stroke="black" stroke-width="3" />
<line x1="760" y1="660" x2="810" y2="660" stroke="black" stroke-width="3" />
<line x1="760" y1="760" x2="810" y2="760" stroke="black" stroke-width="3" />
<line x1="760" y1="860" x2="810" y2="860" stroke="black" stroke-width="3" />
<line x1="760" y1="910" x2="810" y2="910" stroke="black" stroke-width="3" />
<line x1="760" y1="1010" x2="810" y2="1010" stroke="black" stroke-width="3" />
<line x1="810" y1="10" x2="860" y2="10" stroke="black" stroke-width="3" />
<line x1="810" y1="60" x2="860" y2="60" stroke="black" stroke-width="3" />
<line x1="810" y1="110" x2="860" y2="110" stroke="black" stroke-width="3" />
<line x1="810" y1="160" x2="860" y2="160" stroke="black" stroke-width="3" />
<line x1="810" y1="210" x2="860" y2="210" stroke="black" stroke-width="3" />
<line x1="810" y1="260" x2="860" y2="260" stroke="black" stroke-width="3" />
<line x1="810" y1="310" x2="860" y2="310" stroke="black" stroke-width="3" />
<line x1="810" y1="410" x2="860" y2="410" stroke="black" stroke-width="3" />
<line x1="810" y1="510" x2="860" y2="510" stroke="black" stroke-width="3" />
<line x1="810" y1="660" x2="860" y2="660" stroke="black" stroke-width="3" />
<line x1="810" y1="710" x2="860" y2="710" stroke="black" stroke-width="3" />
<line x1="810" y1="760" x2="860" y2="760" stroke="black" stroke-width="3" />
<line x1="810" y1="810" x2="860" y2="810" stroke="black" stroke-width="3" />
<line x1="810" y1="860" x2="860" y2="860" stroke="black" stroke-width="3" />
<line x1="810" y1="910" x2="860" y2="910" stroke="black" stroke-width="3" />
<line x1="810" y1="1010" x2="860" y2="1010" stroke="black" stroke-width="3" />
<line x1="860" y1="10" x2="910" y2="10" stroke="black" stroke-width="3" />
<line x1="860" y1="110" x2="910" y2="110" stroke="black" stroke-width="3" />
<line x1="860" y1="160" x2="910" y2="160" stroke="black" stroke-width="3" />
<line x1="860" y1="310" x2="910" y2="310" stroke="black" stroke-width="3" />
<line x1="860" y1="610" x2="910" y2="610" stroke="black" stroke-width="3" />
<line x1="860" y1="760" x2="910" y2="760" stroke="black" stroke-width="3" />
<line x1="860" y1="860" x2="910" y2="860" stroke="black" stroke-width="3" />
<line x1="860" y1="1010" x2="910" y2="1010" stroke="black" stroke-width="3" />
<line x1="910" y1="10" x2="960" y2="10" stroke="black" stroke-width="3" />
<line x1="910" y1="60" x2="960" y2="60" stroke="black" stroke-width="3" />
<line x1="910" y1="110" x2="960" y2="110" stroke="black" stroke-width="3" />
<line x1="910" y1="160" x2="960" y2="160" stroke="black" stroke-width="3" />
<line x1="910" y1="210" x2="960" y2="210" stroke="black" stroke-width="3" />
<line x1="910" y1="410" x2="960" y2="410" stroke="black" stroke-width="3" />
<line x1="910" y1="460" x2="960" y2="460" stroke="black" stroke-width="3" />
<line x1="910" y1="610" x2="960" y2="610" stroke="black" stroke-width="3" />
<line x1="910" y1="660" x2="960" y2="660" stroke="black" stroke-width="3" />
<line x1="910" y1="710" x2="960" y2="710" stroke="black" stroke-width="3" />
<line x1="910" y1="760" x2="960" y2="760" stroke="black" stroke-width="3" />
<line x1="910" y1="810" x2="960" y2="810" stroke="black" stroke-width="3" />
<line x1="910" y1="860" x2="960" y2="860" stroke="black" stroke-width="3" />
<line x1="910" y1="910" x2="960" y2="910" stroke="black" stroke-width="3" />
<line x1="910" y1="960" x2="960" y2="960" stroke="black" stroke-width="3" />
<line x1="910" y1="1010" x2="960" y2="1010" stroke="black" stroke-width="3" />
<line x1="960" y1="10" x2="1010" y2="10" stroke="black" stroke-width="3" />
<line x1="960" y1="60" x2="1010" y2="60" stroke="black" stroke-width="3" />
<line x1="960" y1="360" x2="1010" y2="360" stroke="black" stroke-width="3" />
<line x1="960" y1="410" x2="1010" y2="410" stroke="black" stroke-width="3" />
<line x1="960" y1="560" x2="1010" y2="560" stroke="black" stroke-width="3" />
<line x1="960" y1="810" x2="1010" y2="810" stroke="black" stroke-width="3" />
<line x1="960" y1="910" x2="1010" y2="910" stroke="black" stroke-width="3" />
<line x1="960" y1="1010" x2="1010" y2="1010" stroke="black" stroke-width="3" />
</svg>
